# Blender v2.91.2 OBJ File: ''
# www.blender.org
mtllib untitled.mtl
o cornell
v 0.964259 -0.000002 9.751824
v 5.264829 -0.000000 0.723807
v 14.292846 -0.000001 5.024376
v 9.992277 -0.000002 14.052394
v 0.964259 10.807531 9.751826
v 9.992277 10.807531 14.052396
v 14.292846 10.807532 5.024378
v 5.264829 10.807533 0.723809
v -12.029993 -0.000000 1.153976
v -15.564538 0.000001 -8.200541
v -6.210022 0.000002 -11.735086
v -2.675476 0.000000 -2.380569
v -12.029993 30.000000 1.153981
v -2.675476 30.000000 -2.380564
v -6.210022 30.000002 -11.735082
v -15.564538 30.000002 -8.200536
v -23.644884 0.000003 -20.000000
v -23.644884 -0.000003 20.000000
v 23.644884 0.000003 -20.000000
v 23.644884 -0.000003 20.000000
v 23.644884 48.852287 20.000008
v -23.644884 48.852287 20.000008
v 23.644884 48.852295 -19.999992
v -23.644884 48.852295 -19.999992
v -23.644884 -0.000003 20.000000
v -23.644884 0.000003 -20.000000
v -23.644884 48.852287 20.000008
v -23.644884 48.852295 -19.999992
v 23.644884 0.000003 -20.000000
v 23.644884 -0.000003 20.000000
v 23.644884 48.852295 -19.999992
v 23.644884 48.852287 20.000008
v -23.644884 0.000003 -20.000000
v 23.644884 0.000003 -20.000000
v -23.644884 48.852295 -19.999992
v 23.644884 48.852295 -19.999992
vt 0.709455 0.699975
vt 0.709455 0.557739
vt 0.851691 0.557739
vt 0.851691 0.699975
vt 0.709455 0.853698
vt 0.851691 0.853698
vt 0.851691 0.995934
vt 0.709455 0.995934
vt 0.993927 0.699975
vt 0.993927 0.853698
vt 0.709455 0.404017
vt 0.851691 0.404017
vt 0.567219 0.699975
vt 0.567219 0.853698
vt 0.533232 0.090815
vt 0.616810 0.090815
vt 0.616810 0.174392
vt 0.533232 0.174392
vt 0.282498 0.090815
vt 0.282498 0.174393
vt 0.198921 0.174392
vt 0.198921 0.090815
vt 0.533232 0.257970
vt 0.282498 0.257970
vt 0.867544 0.090814
vt 0.867544 0.174392
vt 0.533232 0.007237
vt 0.282498 0.007237
vt 0.527123 0.778509
vt 0.527124 1.000109
vt 0.265138 0.778509
vt 0.265138 1.000109
vt 0.002906 0.778509
vt 0.264891 0.778509
vt 0.002906 1.000109
vt 0.264891 1.000109
vt 0.544436 0.294429
vt 0.544436 0.516028
vt 0.273795 0.294429
vt 0.273795 0.516028
vt 0.273547 0.556661
vt 0.273547 0.778261
vt 0.002906 0.556661
vt 0.002906 0.778261
vt 0.273547 0.294429
vt 0.273547 0.556414
vt 0.002906 0.294429
vt 0.002906 0.556414
vn 0.0000 -1.0000 -0.0000
vn -0.0000 1.0000 0.0000
vn -0.4301 -0.0000 0.9028
vn 0.9028 -0.0000 0.4301
vn 0.4301 0.0000 -0.9028
vn -0.9028 0.0000 -0.4301
vn 0.3535 -0.0000 0.9355
vn 0.9355 0.0000 -0.3535
vn -0.3535 0.0000 -0.9355
vn -0.9355 -0.0000 0.3535
vn 1.0000 0.0000 0.0000
vn -1.0000 0.0000 0.0000
vn 0.0000 -0.0000 1.0000
usemtl Default_OBJ
s off
f 1/1/1 2/2/1 3/3/1
f 3/3/1 4/4/1 1/1/1
f 5/5/2 6/6/2 7/7/2
f 7/7/2 8/8/2 5/5/2
f 1/1/3 4/4/3 6/6/3
f 6/6/3 5/5/3 1/1/3
f 4/4/4 3/9/4 7/10/4
f 7/10/4 6/6/4 4/4/4
f 3/3/5 2/2/5 8/11/5
f 8/11/5 7/12/5 3/3/5
f 2/13/6 1/1/6 5/5/6
f 5/5/6 8/14/6 2/13/6
f 9/15/1 10/16/1 11/17/1
f 11/17/1 12/18/1 9/15/1
f 13/19/2 14/20/2 15/21/2
f 15/21/2 16/22/2 13/19/2
f 9/15/7 12/18/7 14/20/7
f 14/20/7 13/19/7 9/15/7
f 12/18/8 11/23/8 15/24/8
f 15/24/8 14/20/8 12/18/8
f 11/17/9 10/16/9 16/25/9
f 16/25/9 15/26/9 11/17/9
f 10/27/10 9/15/10 13/19/10
f 13/19/10 16/28/10 10/27/10
f 17/29/2 18/30/2 19/31/2
f 20/32/2 19/31/2 18/30/2
f 21/33/1 22/34/1 23/35/1
f 24/36/1 23/35/1 22/34/1
f 25/37/11 26/38/11 27/39/11
f 28/40/11 27/39/11 26/38/11
f 29/41/12 30/42/12 31/43/12
f 32/44/12 31/43/12 30/42/12
f 33/45/13 34/46/13 35/47/13
f 36/48/13 35/47/13 34/46/13
